# xmcd
#
# Track frame offsets:
#	150
#	18850
#	38270
#	61357
#	82017
#	93540
#	110412
#	131515
#	150032
#
# Disc length: 2351 seconds
#
# Revision: 25
# Processed by: cddbd v1.5.2PL0 Copyright (c) Steve Scherf et al.
# Submitted via: Jack! The Knife 20 Magnifico
#
DISCID=5c092d09
DTITLE=Testament - The Legacy
DYEAR=1986
DGENRE=Metal
TTITLE0=Over The Wall
TTITLE1=The Haunting
TTITLE2=Burnt Offerings
TTITLE3=Raging Waters
TTITLE4=C.O.T.L.O.D.
TTITLE5=First Strike Is Deadly
TTITLE6=Do Or Die
TTITLE7=Alone In The Dark
TTITLE8=Apocalyptic City
EXTD=Alex Perialas
EXTT0=Peterson, Skolnick, Christian
EXTT1=Skolnick, Peterson
EXTT2=Skolnick, Peterson
EXTT3=Eric Peterson
EXTT4=Ramirez, Peterson
EXTT5=Peterson, Skolnick
EXTT6=Skolnick, Peterson, Clemente
EXTT7=Skolnick, Peterson
EXTT8=Skolnick, Peterson
PLAYORDER=
